# xmcd
#
# Track frame offsets:
#	150
#	12315
#	33188
#	46008
#	66875
#	78672
#	100740
#	114863
#	130342
#	144353
#
# Disc length: 2220 seconds
#
# Revision: 1
# Processed by: cddbd v1.5.2PL0 Copyright (c) Steve Scherf et al.
# Submitted via: audiograbber 1.83.01
#
DISCID=7708aa0a
DTITLE=Crash Coffin - Crash Coffin
DYEAR=1900
DGENRE=Rock
TTITLE0=Masochist Blues
TTITLE1=Lilly
TTITLE2=Amazon Women
TTITLE3=God Loves The Loser
TTITLE4=Mama
TTITLE5=Alone Together
TTITLE6=Freedom Cake
TTITLE7=The Swing
TTITLE8=The Looney Polka
TTITLE9=Blue Kazoo
EXTD=
EXTT0=
EXTT1=
EXTT2=
EXTT3=
EXTT4=
EXTT5=
EXTT6=
EXTT7=
EXTT8=
EXTT9=
PLAYORDER=
